# xmcd CD database file
#
# Track frame offsets:
#	150
#	16013
#	26975
#	44140
#	55075
#	71361
#	87841
#	103021
#	123473
#	139058
#	151171
#	162668
#	179933
#	193648
#	210020
#	222637
#
# Disc length: 3148 seconds
#
# Revision: 0
# Processed by: cddbd v1.5.2PL0 Copyright (c) Steve Scherf et al.
# Submitted via: CDex 1.51
#
DISCID=e90c4a10
DTITLE=Various Artist - Highwaygirls
DYEAR=1900
DGENRE=Country
TTITLE0=CATHERINE BRITT: 46 MILES FROM MEMPHIS
TTITLE1=AUDREY AULD: I'D LEAVE ME TOO
TTITLE2=BELLY COLE: BAD NEWS FOR THE BLUES
TTITLE3=KASEY CHAMBERS: LAST HARD BIBLE
TTITLE4=CATHERINE BRITT: NASHVILLE BLUES
TTITLE5=MELINDA SCHNEIDER: DAMN LOVE
TTITLE6=SAHARA SMITH: MIDNIGHT PLANE
TTITLE7=ANNE KIRKPATRICK: SHOWMAN'S DAUGHTER
TTITLE8=AMELIA CURRAN: YOU WON'T FIND ME
TTITLE9=DIANNA CORCORAN: HERE'S YOUR DAMN SONG
TTITLE10=DAWN LANDES: SWEETHEART OF THE RODEO
TTITLE11=TRACY KILLEEN: GOOD FRIENDS AND GOOD TIMES
TTITLE12=LISA MILLER: GIVE BACK THE KEY TO MY HEART
TTITLE13=KRISTY COX: WHICH SIDE OF THE TRUTH
TTITLE14=CATHERINE BRITT: HILLBILLY PICKIN' RAMBLIN' GIRL
TTITLE15=KASEY CHAMBERS: A LITTLE BIT LONESOME
EXTD=
EXTT0=
EXTT1=
EXTT2=
EXTT3=
EXTT4=
EXTT5=
EXTT6=
EXTT7=
EXTT8=
EXTT9=
EXTT10=
EXTT11=
EXTT12=
EXTT13=
EXTT14=
EXTT15=
PLAYORDER=
